<?xml version="1.0" standalone="no"?><!DOCTYPE svg PUBLIC "-//W3C//DTD SVG 1.1//EN" "http://www.w3.org/Graphics/SVG/1.1/DTD/svg11.dtd"><svg t="1504059290846" class="icon" style="" viewBox="0 0 1024 1024" version="1.1" xmlns="http://www.w3.org/2000/svg" p-id="2600" xmlns:xlink="http://www.w3.org/1999/xlink" width="32" height="32"><defs><style type="text/css"></style></defs><path d="M740.010667 360.96c-29.354667-95.744-88.234667-165.376-193.877334-180.224a492.373333 492.373333 0 0 0-85.333333-1.365333 348.501333 348.501333 0 0 1-68.266667 7.168l-43.690666 3.413333c-146.261333 10.752-216.405333 112.128-232.277334 238.421333-11.093333 87.381333 17.066667 163.84 61.952 231.082667C202.581333 711.168 221.866667 730.965333 238.933333 785.066667a682.666667 682.666667 0 0 1 11.093334 86.528 67.242667 67.242667 0 0 0 20.821333 65.536c52.224 41.301333 109.738667 49.152 175.274667 42.496 171.861333-17.066667 246.954667-106.496 294.570666-249.514667a596.309333 596.309333 0 0 0-0.682666-369.152z" fill="#FFB71C" p-id="2601"></path><path d="M407.210667 989.866667a215.722667 215.722667 0 0 1-141.482667-46.250667A74.752 74.752 0 0 1 242.005333 870.4a716.8 716.8 0 0 0-10.752-83.114667 353.28 353.28 0 0 0-34.133333-76.458666c-7.850667-14.165333-16.042667-28.672-25.088-48.128C119.466667 584.874667 98.816 507.733333 108.885333 426.666667c18.773333-148.309333 103.594667-235.178667 238.933334-244.736l31.061333-2.389334h13.653333a341.333333 341.333333 0 0 0 66.901334-6.997333H470.528a434.005333 434.005333 0 0 1 77.653333 1.706667C646.656 187.733333 713.898667 249.514667 747.52 358.4a602.965333 602.965333 0 0 1 0 374.272c-54.784 164.864-141.994667 238.933333-301.056 254.805333a389.461333 389.461333 0 0 1-39.253333 2.389334z m-11.946667-795.477334l-15.018667 1.194667-31.232 2.389333c-171.690667 12.117333-214.528 150.186667-224.768 231.253334-9.728 76.629333 10.24 150.528 60.757334 225.792v1.024c8.874667 19.114667 17.066667 34.133333 24.917333 47.616a366.08 366.08 0 0 1 35.669333 79.36 600.746667 600.746667 0 0 1 11.093334 90.794666 59.221333 59.221333 0 0 0 18.090666 57.685334c45.056 35.669333 97.28 48.298667 169.642667 40.96 152.064-15.530667 235.52-86.186667 287.914667-244.394667a587.776 587.776 0 0 0 0-364.885333c-31.744-102.4-94.549333-161.792-187.733334-174.762667a421.546667 421.546667 0 0 0-74.922666-1.536L460.8 187.733333a362.325333 362.325333 0 0 1-65.365333 6.656z" fill="#231F20" p-id="2602"></path><path d="M390.826667 972.8h16.213333a372.736 372.736 0 0 0 37.888-2.048c151.210667-15.36 234.154667-85.333333 286.549333-243.2a568.832 568.832 0 0 0 21.162667-272.213333c-50.005333 151.893333-159.061333 401.578667-361.813333 517.461333z" fill="#B27E14" p-id="2603"></path><path d="M594.090667 877.226667a7.68 7.68 0 0 1-3.925334-14.506667s65.706667-39.253333 113.664-162.986667a7.68 7.68 0 0 1 14.506667 5.632c-50.005333 129.365333-117.418667 169.301333-120.32 170.666667a7.68 7.68 0 0 1-3.925333 1.194667z" fill="#FFCC66" p-id="2604"></path><path d="M411.989333 190.976a7.68 7.68 0 0 1-7.68-7.68c0-1.365333 1.536-133.12 132.608-165.888a7.68 7.68 0 0 1 3.754667 15.018667c-119.466667 29.866667-120.832 149.674667-120.832 150.869333a7.68 7.68 0 0 1-7.850667 7.68z" fill="#231F20" p-id="2605"></path><path d="M486.229333 51.2s322.218667 70.826667 394.581334 324.266667c24.064 84.138667 15.530667 113.834667 8.192 143.36 0 0-91.477333-91.477333-176.981334-132.949334-136.533333-66.218667-263.68-199.509333-228.181333-325.12z" fill="#4FC700" p-id="2606"></path><path d="M893.269333 533.333333l-9.728-9.728c-0.853333-0.853333-91.648-90.965333-174.933333-131.584-142.677333-69.461333-268.288-206.506667-232.277333-334.165333l4.437333-15.872 7.168 1.536c3.242667 0 327.509333 74.922667 400.384 329.045333 24.064 83.968 17.066667 115.2 8.704 145.237334zM491.690667 60.416v1.706667c-34.133333 119.466667 87.210667 249.514667 224.256 316.074666a777.898667 777.898667 0 0 1 169.301333 124.928c5.802667-25.429333 8.704-56.490667-11.264-126.293333-64.853333-224.597333-335.018667-304.128-382.293333-316.416z" fill="#231F20" p-id="2607"></path><path d="M590.336 173.397333a7.68 7.68 0 0 1-5.461333-2.218666L489.813333 76.117333a7.68 7.68 0 1 1 10.922667-10.922666l95.061333 95.061333a7.68 7.68 0 0 1-5.461333 13.141333zM653.653333 236.714667a7.68 7.68 0 0 1-5.461333-2.218667l-31.744-31.744a7.68 7.68 0 0 1 10.922667-10.922667l31.744 31.744a7.68 7.68 0 0 1-5.461334 13.141334z" fill="#231F20" p-id="2608"></path><path d="M301.397333 399.36m-113.664 0a113.664 113.664 0 1 0 227.328 0 113.664 113.664 0 1 0-227.328 0Z" fill="#FFDD99" p-id="2609"></path><path d="M301.397333 348.330667m-62.634666 0a62.634667 62.634667 0 1 0 125.269333 0 62.634667 62.634667 0 1 0-125.269333 0Z" fill="#FFEDCC" p-id="2610"></path><path d="M783.872 310.272a232.618667 232.618667 0 0 0-180.394667-6.826667A549.717333 549.717333 0 0 0 716.8 376.661333a773.290667 773.290667 0 0 1 167.424 123.221334c5.12-24.576 7.168-55.466667-11.605333-121.173334a328.021333 328.021333 0 0 0-88.746667-68.437333z" fill="#A8D68A" p-id="2611"></path><path d="M321.194667 793.770667a7.68 7.68 0 0 1-7.68-7.509334 215.210667 215.210667 0 0 0-29.696-105.984c-2.389333-3.413333-4.949333-6.997333-7.68-10.581333a90.282667 90.282667 0 0 1-24.576-65.024 7.68 7.68 0 0 1 15.36 1.365333 76.8 76.8 0 0 0 21.504 54.272c2.901333 3.754667 5.632 7.509333 8.192 11.264a230.912 230.912 0 0 1 32.426666 113.493334 7.68 7.68 0 0 1-7.509333 8.021333z" fill="#231F20" p-id="2612"></path></svg>