<?xml version="1.0" standalone="no"?><!DOCTYPE svg PUBLIC "-//W3C//DTD SVG 1.1//EN" "http://www.w3.org/Graphics/SVG/1.1/DTD/svg11.dtd"><svg t="1504075351871" class="icon" style="" viewBox="0 0 1027 1024" version="1.1" xmlns="http://www.w3.org/2000/svg" p-id="4729" xmlns:xlink="http://www.w3.org/1999/xlink" width="48.140625" height="48"><defs><style type="text/css"></style></defs><path d="M532.138667 946.289778c11.776-21.447111 32.796444-43.292444 33.649777-104.675556s-46.222222-103.424-49.578666-105.102222c-3.356444-1.706667-38.257778-28.16-102.172445-26.055111s-98.816 7.964444-118.983111 10.524444c-20.195556 2.56-62.236444 7.964444-84.935111 7.964445s-55.068444-7.111111-69.404444-14.279111c-14.279111-7.111111-48.355556-31.857778-62.577778-59.221334S57.457778 597.333333 57.457778 597.333333l180.792889-81.180444s21.447111-10.922667 30.264889-21.902222c8.817778-10.894222 13.454222-21.418667 13.454222-21.418667s0.853333-32.796444 9.244444-54.243556c8.419556-21.447111 22.698667-31.118222 22.698667-31.118222l87.893333-76.515555s-41.927111-45.226667-49.635555-83.256889c-17.123556-84.622222-9.272889-160.853333-9.272889-160.853334s36.807111 81.493333 45.397333 96.341334c13.255111 22.926222 33.735111 44.771556 33.735111 44.771555s0.483556-21.134222 14.705778-55.893333c5.404444-13.169778 36.778667-64.455111 36.778667-64.455111s12.316444 41.244444 29.952 62.72c12.942222 15.701333 21.617778 19.569778 44.202666 29.923555 26.510222 12.145778 40.305778 34.417778 54.613334 59.079112 2.759111 4.750222 7.964444 14.705778 7.964444 14.705777s71.168 8.96 147.285333 39.253334c76.117333 30.264889 149.674667 84.935111 149.674667 84.935111l-81.635555 15.985778s77.368889 17.635556 134.599111 65.137777c47.957333 39.822222 66.332444 61.297778 66.759111 61.781334l0.085333-7.68C1027.015111 229.916444 797.098667 0 513.507556 0S0 229.916444 0 513.507556C0 778.325333 200.419556 996.266667 457.841778 1024c0.568889-0.568889 62.577778-56.376889 74.296889-77.710222z" fill="#E6501E" p-id="4730"></path></svg>