<?xml version="1.0" standalone="no"?><!DOCTYPE svg PUBLIC "-//W3C//DTD SVG 1.1//EN" "http://www.w3.org/Graphics/SVG/1.1/DTD/svg11.dtd"><svg t="1504059309879" class="icon" style="" viewBox="0 0 1024 1024" version="1.1" xmlns="http://www.w3.org/2000/svg" p-id="3403" xmlns:xlink="http://www.w3.org/1999/xlink" width="32" height="32"><defs><style type="text/css"></style></defs><path d="M396.243968 291.67616L233.73824 129.215488C258.226176 100.283392 256 57.99936 229.286912 33.518592c-28.93824-28.931072-73.46176-28.931072-102.4 0C109.078528 51.32288 102.4 73.577472 106.852352 98.05824c-22.26176-4.451328-46.747648 2.225152-64.557056 20.02944-28.93824 28.931072-28.93824 73.44128 0 102.372352 26.713088 26.70592 69.009408 26.70592 95.722496 4.451328l162.50368 162.460672 95.722496-95.695872zM727.93088 623.275008L890.43456 785.73568c28.939264-24.480768 71.23456-22.254592 95.721472 4.451328 28.939264 28.931072 28.939264 73.44128 0 102.372352-17.80736 17.804288-40.06912 24.480768-64.556032 20.02944 4.452352 22.254592-2.226176 46.73536-20.03456 64.539648-28.939264 28.931072-73.46176 28.931072-102.4 0-26.713088-26.70592-26.713088-68.990976-4.452352-95.696896L632.208384 718.97088l95.722496-95.695872z" fill="#FFD983" p-id="3404"></path><path d="M841.46176 445.2352c-44.52352-44.510208-113.53088-42.284032-173.635584-102.372352s-55.652352-129.079296-102.4-173.58848c-97.947648-97.922048-195.895296-40.05888-313.878528 77.891584-120.208384 120.17664-175.860736 215.873536-77.913088 313.79456 44.521472 44.510208 113.53088 42.285056 173.63456 102.373376 60.104704 60.08832 55.652352 129.078272 102.4 173.58848 97.948672 97.921024 195.89632 40.05888 313.878528-77.892608C881.53088 641.078272 939.409408 543.157248 841.46176 445.2352" fill="#C1694F" p-id="3405"></path><path d="M396.243968 643.304448c-2.226176 0-6.678528 0-8.904704-2.226176-15.583232-4.450304-22.26176-20.02944-17.808384-35.607552C400.695296 512 516.452352 396.274688 609.947648 365.11744c15.583232-4.451328 31.16544 2.225152 35.617792 17.804288 4.452352 15.578112-2.226176 31.156224-17.809408 35.607552-75.686912 24.480768-180.312064 131.304448-204.8 204.745728-4.451328 13.35296-15.582208 20.02944-26.712064 20.02944" fill="#662113" p-id="3406"></path></svg>