<?xml version="1.0" standalone="no"?><!DOCTYPE svg PUBLIC "-//W3C//DTD SVG 1.1//EN" "http://www.w3.org/Graphics/SVG/1.1/DTD/svg11.dtd"><svg t="1506046040705" class="icon" style="" viewBox="0 0 1024 1024" version="1.1" xmlns="http://www.w3.org/2000/svg" p-id="7163" xmlns:xlink="http://www.w3.org/1999/xlink" width="64" height="64"><defs><style type="text/css"></style></defs><path d="M179.2 256l691.2 0 0 85.333333-691.2 0 0-85.333333ZM851.438933 256c4.189867 0 10.427733-0.366933 10.427733 3.822933l0 516.189867C861.866667 780.202667 855.637333 785.066667 851.438933 785.066667L206.208 785.066667C202.0096 785.066667 196.266667 780.202667 196.266667 776.004267L196.266667 259.822933C196.266667 255.633067 202.0096 256 206.208 256L853.333333 256M851.438933 238.933333 206.208 238.933333C192.605867 238.933333 179.2 246.2208 179.2 259.822933l0 516.189867C179.2 789.597867 192.605867 802.133333 206.208 802.133333l645.230933 0c13.602133 0 27.4944-12.535467 27.4944-26.129067L878.933333 259.822933C878.933333 246.2208 865.041067 238.933333 851.438933 238.933333L851.438933 238.933333zM870.4 349.866667 196.266667 349.866667c-4.718933 0-8.533333-3.822933-8.533333-8.533333s3.8144-8.533333 8.533333-8.533333l674.133333 0c4.718933 0 8.533333 3.822933 8.533333 8.533333S875.118933 349.866667 870.4 349.866667zM245.282133 293.930667m-17.297067 0a2.027 2.027 0 1 0 34.594133 0 2.027 2.027 0 1 0-34.594133 0ZM312.866133 293.930667m-17.297067 0a2.027 2.027 0 1 0 34.594133 0 2.027 2.027 0 1 0-34.594133 0ZM380.4416 293.930667m-17.297067 0a2.027 2.027 0 1 0 34.594133 0 2.027 2.027 0 1 0-34.594133 0ZM768 307.2 469.333333 307.2c-4.718933 0-8.533333-3.822933-8.533333-8.533333s3.8144-8.533333 8.533333-8.533333l298.666667 0c4.718933 0 8.533333 3.822933 8.533333 8.533333S772.718933 307.2 768 307.2zM612.7104 523.989333m-28.8512 0a3.381 3.381 0 1 0 57.7024 0 3.381 3.381 0 1 0-57.7024 0ZM119.466667 489.2416C119.466667 492.381867 116.9152 494.933333 113.774933 494.933333l-5.6832 0C104.951467 494.933333 102.4 492.381867 102.4 489.2416l0-56.874667C102.4 429.218133 104.951467 426.666667 108.091733 426.666667l5.6832 0C116.9152 426.666667 119.466667 429.218133 119.466667 432.3584L119.466667 489.2416zM145.066667 463.6416C145.066667 466.781867 142.5152 469.333333 139.3664 469.333333L82.500267 469.333333C79.351467 469.333333 76.8 466.781867 76.8 463.6416l0-5.6832C76.8 454.818133 79.351467 452.266667 82.500267 452.266667l56.866133 0C142.5152 452.266667 145.066667 454.818133 145.066667 457.9584L145.066667 463.6416zM853.333333 199.108267C853.333333 202.248533 850.781867 204.8 847.6416 204.8l-5.6832 0C838.818133 204.8 836.266667 202.248533 836.266667 199.108267l0-56.874667C836.266667 139.0848 838.818133 136.533333 841.9584 136.533333l5.6832 0c3.140267 0 5.691733 2.551467 5.691733 5.691733L853.333333 199.108267zM878.933333 173.508267c0 3.1488-2.551467 5.691733-5.691733 5.691733l-56.8832 0C813.218133 179.2 810.666667 176.648533 810.666667 173.508267l0-5.674667C810.666667 164.6848 813.218133 162.133333 816.3584 162.133333l56.8832 0c3.140267 0 5.691733 2.551467 5.691733 5.691733L878.933333 173.508267zM955.733333 361.2416c0 3.140267-2.551467 5.691733-5.691733 5.691733l-5.6832 0c-3.140267 0-5.691733-2.551467-5.691733-5.691733l0-56.8832c0-3.140267 2.551467-5.691733 5.691733-5.691733l5.6832 0c3.140267 0 5.691733 2.551467 5.691733 5.691733L955.733333 361.2416zM981.333333 335.6416c0 3.140267-2.551467 5.691733-5.691733 5.691733l-56.8832 0c-3.140267 0-5.691733-2.551467-5.691733-5.691733l0-5.6832c0-3.140267 2.551467-5.691733 5.691733-5.691733l56.8832 0c3.140267 0 5.691733 2.551467 5.691733 5.691733L981.333333 335.6416zM989.866667 216.174933c0 3.140267-2.551467 5.691733-5.691733 5.691733l-5.6832 0c-3.140267 0-5.691733-2.551467-5.691733-5.691733l0-56.8832c0-3.140267 2.551467-5.691733 5.691733-5.691733l5.6832 0c3.140267 0 5.691733 2.551467 5.691733 5.691733L989.866667 216.174933zM1015.466667 190.574933c0 3.1488-2.551467 5.691733-5.691733 5.691733l-56.8832 0c-3.140267 0-5.691733-2.551467-5.691733-5.691733l0-5.674667c0-3.1488 2.551467-5.691733 5.691733-5.691733l56.8832 0c3.140267 0 5.691733 2.551467 5.691733 5.691733L1015.466667 190.574933zM51.2 378.308267C51.2 381.448533 48.648533 384 45.499733 384L39.8336 384C36.6848 384 34.133333 381.448533 34.133333 378.308267l0-56.874667C34.133333 318.2848 36.6848 315.733333 39.8336 315.733333l5.666133 0C48.648533 315.733333 51.2 318.2848 51.2 321.425067L51.2 378.308267zM76.8 352.708267C76.8 355.848533 74.248533 358.4 71.108267 358.4L14.225067 358.4C11.0848 358.4 8.533333 355.848533 8.533333 352.708267l0-5.6832C8.533333 343.8848 11.0848 341.333333 14.225067 341.333333l56.8832 0C74.248533 341.333333 76.8 343.8848 76.8 347.025067L76.8 352.708267zM446.976 525.252267m-28.8512 0a3.381 3.381 0 1 0 57.7024 0 3.381 3.381 0 1 0-57.7024 0ZM972.8 659.908267c0 3.140267-2.551467 5.691733-5.700267 5.691733l-5.666133 0c-3.1488 0-5.700267-2.551467-5.700267-5.691733l0-56.8832c0-3.140267 2.551467-5.691733 5.700267-5.691733l5.666133 0c3.1488 0 5.700267 2.551467 5.700267 5.691733L972.8 659.908267zM998.4 634.308267c0 3.140267-2.551467 5.691733-5.691733 5.691733l-56.8832 0c-3.140267 0-5.691733-2.551467-5.691733-5.691733l0-5.6832c0-3.140267 2.551467-5.691733 5.691733-5.691733l56.8832 0c3.140267 0 5.691733 2.551467 5.691733 5.691733L998.4 634.308267zM451.208533 659.549867c-4.667733 0-9.258667-2.167467-12.168533-6.2464-4.795733-6.715733-3.242667-16.042667 3.473067-20.829867 0.887467-0.6144 88.823467-61.960533 175.5904 0 6.715733 4.795733 8.2688 14.114133 3.473067 20.829867-4.778667 6.698667-14.114133 8.285867-20.821333 3.473067-69.632-49.723733-140.1856-0.494933-140.893867 0C457.2416 658.653867 454.212267 659.549867 451.208533 659.549867zM989.866667 870.4 1006.933333 870.4 989.866667 870.4ZM983.739733 866.133333M921.6 870.4 955.733333 870.4 921.6 870.4ZM921.6 866.133333M179.2 870.4 878.933333 870.4 179.2 870.4ZM128 866.133333M128 870.4 136.533333 870.4 128 870.4ZM93.866667 870.4 128 870.4 93.866667 870.4Z" p-id="7164" fill="#4ab51b"></path></svg>