<?xml version="1.0" standalone="no"?><!DOCTYPE svg PUBLIC "-//W3C//DTD SVG 1.1//EN" "http://www.w3.org/Graphics/SVG/1.1/DTD/svg11.dtd"><svg t="1505991017004" class="icon" style="" viewBox="0 0 1024 1024" version="1.1" xmlns="http://www.w3.org/2000/svg" p-id="4084" xmlns:xlink="http://www.w3.org/1999/xlink" width="16" height="16"><defs><style type="text/css"></style></defs><path d="M512 1024C229.216 1024 0 794.784 0 512 0 229.216 229.216 0 512 0 794.784 0 1024 229.216 1024 512 1024 794.784 794.784 1024 512 1024ZM512 64C264.576 64 64 264.576 64 512 64 759.424 264.576 960 512 960 759.424 960 960 759.424 960 512 960 264.576 759.424 64 512 64Z" p-id="4085" fill="#ea9518"></path><path d="M768 576 512 576C494.336 576 480 561.664 480 544L480 288C480 270.336 494.336 256 512 256 529.664 256 544 270.336 544 288L544 512 768 512C785.664 512 800 526.336 800 544 800 561.664 785.664 576 768 576Z" p-id="4086" fill="#ea9518"></path></svg>