<?xml version="1.0" standalone="no"?><!DOCTYPE svg PUBLIC "-//W3C//DTD SVG 1.1//EN" "http://www.w3.org/Graphics/SVG/1.1/DTD/svg11.dtd"><svg t="1504059338917" class="icon" style="" viewBox="0 0 1024 1024" version="1.1" xmlns="http://www.w3.org/2000/svg" p-id="3840" xmlns:xlink="http://www.w3.org/1999/xlink" width="32" height="32"><defs><style type="text/css"></style></defs><path d="M877.937366 662.146649c-74.503854 55.345516-11.352559 148.297534-157.521616 163.907047-87.996147 9.398044-137.272433 73.302493-137.272433 73.302493s-19.182898 26.793226-64.951291 28.873608c-0.25378 0.011256-0.49528 0.007163-0.748037 0.016373 0.01228-0.242524 0.036839-0.476861 0.037862-0.726547 0.148379-42.796712 0.668219-85.585237 1.396813-128.369669 80.444147-37.694507 143.700843-100.109022 202.052832-166.289304 10.835789-12.288884-7.164167-30.422893-18.062378-18.062378C649.143497 675.733085 591.577407 733.192751 519.394411 770.477936c0.935302-48.839335 2.108011-97.674577 3.311419-146.508795 71.495334-59.731406 132.826168-119.375831 163.194826-209.610972 5.254677-15.614629-19.407002-22.315238-24.632004-6.79066-26.13524 77.657684-77.948303 131.013893-137.724735 182.352141 2.521426-102.20987 4.943592-204.421786 5.291516-306.676681 0.056282-16.438391-25.488511-16.460904-25.543769 0-0.346901 102.034884-2.759857 204.027813-5.275143 306.018695-39.495526-51.335179-73.605392-106.639762-111.416556-159.200862-9.513678-13.225209-31.68156-0.48607-22.056342 12.892635 44.025703 61.198827 83.328847 125.796054 131.136689 184.230931 0.442068 0.540306 0.901533 1.00591 1.36816 1.437745-1.175779 47.794539-2.314719 95.590102-3.224438 143.390781-64.709791-46.065152-126.584-103.310947-166.82654-171.658591-8.334829-14.156418-30.423917-1.318018-22.056342 12.892635 44.023656 74.768891 111.874997 136.218428 182.811606 185.635931 1.293459 2.209318 3.197832 4.152577 5.490038 5.498224-0.669242 40.305985-1.137916 80.617086-1.289366 120.933303-27.250644-7.90504-37.96159-28.668946-37.96159-28.668946s-44.360324-81.236186-152.212704-76.979232c-125.501342 4.953825-97.919147-136.234801-149.95529-176.794565-52.037167-40.559764-90.849124-117.489878-23.175839-197.851137 45.411259-53.92619 56.764841-62.441121 56.331983-140.212392-0.561795-101.040231 81.322144-116.646674 132.831284-121.318066s74.791403-33.645284 110.763686-62.520939 124.482129-66.169025 201.020316 0.493234c43.992957 38.315654 38.002522 70.839395 123.462916 83.727936 85.459371 12.887518 114.947985 45.411259 120.624265 113.52866 5.763261 69.158103-16.319687 80.180134 27.672246 141.201929C945.344592 520.944719 944.147324 612.961436 877.937366 662.146649z" p-id="3841" fill="#1afa29"></path></svg>